<?xml version="1.0" encoding="utf-8"?>
<!-- Generator: Adobe Illustrator 15.1.0, SVG Export Plug-In . SVG Version: 6.00 Build 0)  -->
<!DOCTYPE svg PUBLIC "-//W3C//DTD SVG 1.1//EN" "http://www.w3.org/Graphics/SVG/1.1/DTD/svg11.dtd">
<svg version="1.1" class ="chrome-icon icon" xmlns="http://www.w3.org/2000/svg" xmlns:xlink="http://www.w3.org/1999/xlink" width="200px" height="200px" viewBox="0 0 200 200" enable-background="new 0 0 200 200" xml:space="preserve">
<circle cx="100" cy="100" r="36.25"/>
<g>
	<path d="M127.087,63.75c0.643,0.48,1.268,0.981,1.883,1.494c0.187,0.156,0.366,0.318,0.551,0.477
		c0.424,0.366,0.845,0.737,1.255,1.118c0.211,0.195,0.417,0.395,0.624,0.594c0.377,0.364,0.748,0.734,1.113,1.111
		c0.202,0.209,0.404,0.418,0.603,0.632c0.369,0.396,0.729,0.802,1.085,1.212c0.172,0.199,0.348,0.395,0.517,0.597
		c0.434,0.518,0.854,1.046,1.263,1.583c0.077,0.1,0.158,0.196,0.233,0.297c0.483,0.644,0.948,1.302,1.397,1.972
		c0.117,0.175,0.227,0.356,0.342,0.533c0.323,0.498,0.641,1,0.945,1.51c0.145,0.244,0.283,0.491,0.424,0.738
		c0.262,0.459,0.518,0.922,0.764,1.391c0.14,0.266,0.276,0.534,0.411,0.803c0.236,0.473,0.462,0.951,0.682,1.434
		c0.12,0.262,0.241,0.522,0.356,0.787c0.237,0.549,0.461,1.105,0.677,1.666c0.078,0.201,0.162,0.398,0.237,0.601
		c0.283,0.766,0.548,1.54,0.79,2.325c0.046,0.147,0.083,0.298,0.127,0.446c0.189,0.638,0.369,1.281,0.531,1.93
		c0.068,0.275,0.128,0.554,0.191,0.831c0.123,0.533,0.239,1.069,0.343,1.609c0.059,0.308,0.113,0.618,0.166,0.928
		c0.089,0.527,0.169,1.057,0.239,1.59c0.042,0.311,0.084,0.622,0.119,0.935c0.064,0.57,0.113,1.145,0.155,1.721
		c0.021,0.273,0.047,0.545,0.062,0.82c0.048,0.85,0.077,1.705,0.077,2.566c0,0.94-0.038,1.872-0.095,2.799
		c-0.016,0.264-0.039,0.524-0.06,0.786c-0.056,0.707-0.127,1.409-0.215,2.107c-0.029,0.234-0.057,0.47-0.089,0.703
		c-0.264,1.863-0.642,3.688-1.125,5.471c-0.036,0.135-0.076,0.269-0.114,0.403c-0.229,0.814-0.479,1.619-0.752,2.414
		c-0.031,0.089-0.06,0.179-0.091,0.268c-0.638,1.821-1.388,3.588-2.243,5.294c-0.008,0.015-0.016,0.03-0.023,0.046
		c-0.43,0.854-0.885,1.693-1.366,2.516c-0.004,0.007-0.007,0.014-0.011,0.02l0.004,0.002l-0.336,0.574
		c-0.016,0.025-0.03,0.053-0.046,0.078L95.93,196.658c1.351,0.057,2.706,0.092,4.07,0.092c53.434,0,96.75-43.316,96.75-96.75
		c0-12.819-2.499-25.054-7.027-36.25H127.087z"/>
	<path d="M55.064,94.74c0-0.003,0.001-0.007,0.001-0.011c0.649-5.591,2.316-10.869,4.813-15.648c0.021-0.04,0.041-0.08,0.061-0.12
		c0.282-0.535,0.576-1.062,0.878-1.584c0.047-0.082,0.094-0.165,0.142-0.246c0.289-0.493,0.588-0.978,0.896-1.458
		c0.068-0.106,0.136-0.213,0.205-0.319c0.299-0.459,0.605-0.912,0.92-1.359c0.085-0.121,0.171-0.242,0.257-0.362
		c0.311-0.432,0.627-0.858,0.952-1.279c0.098-0.127,0.198-0.253,0.298-0.379c0.324-0.41,0.653-0.816,0.991-1.214
		c0.108-0.127,0.219-0.252,0.328-0.378c0.339-0.392,0.683-0.78,1.035-1.16c0.113-0.122,0.229-0.24,0.344-0.361
		c0.359-0.378,0.72-0.754,1.092-1.12c0.108-0.106,0.22-0.208,0.33-0.314c0.387-0.373,0.776-0.744,1.176-1.104
		c0.074-0.066,0.15-0.128,0.224-0.194c1.417-1.255,2.909-2.426,4.476-3.498c0.031-0.021,0.062-0.045,0.093-0.066
		c0.371-0.253,0.752-0.492,1.131-0.734c0.214-0.137,0.426-0.279,0.643-0.413c0.339-0.208,0.686-0.406,1.031-0.605
		c0.266-0.154,0.53-0.312,0.8-0.46c0.328-0.181,0.661-0.352,0.994-0.525c0.296-0.154,0.592-0.309,0.892-0.457
		c0.324-0.159,0.652-0.311,0.981-0.462c0.317-0.146,0.634-0.292,0.955-0.432c0.323-0.14,0.649-0.274,0.976-0.407
		c0.336-0.137,0.672-0.271,1.012-0.399c0.322-0.122,0.646-0.239,0.972-0.354c0.352-0.125,0.706-0.244,1.062-0.359
		c0.322-0.104,0.645-0.207,0.969-0.304c0.369-0.11,0.74-0.214,1.112-0.316c0.321-0.087,0.642-0.173,0.965-0.254
		c0.384-0.095,0.772-0.182,1.16-0.268c0.319-0.07,0.637-0.142,0.958-0.205c0.403-0.08,0.81-0.148,1.217-0.217
		c0.312-0.053,0.623-0.109,0.937-0.155c0.433-0.064,0.87-0.115,1.307-0.166c0.293-0.035,0.585-0.075,0.88-0.104
		c0.49-0.048,0.985-0.08,1.479-0.112c0.248-0.016,0.493-0.041,0.741-0.053c0.746-0.036,1.495-0.057,2.25-0.057h85.53
		C169.291,24.119,137.085,3.25,100,3.25c-31.015,0-58.619,14.596-76.325,37.292L55.064,94.74z"/>
	<path d="M117.626,141.688L117.626,141.688c-2.702,1.144-5.538,2.032-8.479,2.636c-0.007,0.002-0.014,0.004-0.021,0.005
		c-0.656,0.135-1.319,0.249-1.985,0.354c-0.082,0.014-0.163,0.031-0.245,0.044c-0.644,0.099-1.295,0.177-1.947,0.248
		c-0.106,0.012-0.212,0.029-0.318,0.04c-0.499,0.051-1.004,0.081-1.507,0.115c-0.266,0.018-0.527,0.047-0.794,0.061
		c-0.771,0.039-1.548,0.059-2.329,0.059c-0.941,0-1.874-0.038-2.801-0.095c-0.272-0.017-0.542-0.04-0.812-0.062
		c-0.691-0.055-1.377-0.125-2.059-0.21c-0.258-0.032-0.517-0.062-0.773-0.099c-0.91-0.13-1.814-0.278-2.707-0.462
		c-0.002-0.001-0.004-0.001-0.007-0.002c-0.892-0.183-1.771-0.401-2.644-0.636c-0.228-0.062-0.453-0.128-0.679-0.193
		c-0.691-0.197-1.375-0.411-2.051-0.641c-0.195-0.066-0.392-0.13-0.586-0.198c-1.729-0.613-3.409-1.329-5.034-2.14
		c-0.152-0.076-0.303-0.154-0.454-0.232c-0.709-0.363-1.407-0.744-2.094-1.144c-0.105-0.061-0.211-0.119-0.315-0.182
		c-1.61-0.953-3.154-2.004-4.628-3.144c-0.069-0.054-0.137-0.108-0.207-0.162c-0.712-0.558-1.408-1.134-2.085-1.732
		c-0.017-0.014-0.034-0.028-0.05-0.043c-1.44-1.275-2.796-2.643-4.063-4.09c-0.011-0.014-0.022-0.026-0.034-0.039
		c-1.907-2.184-3.606-4.55-5.07-7.072l-0.004,0.003l-42.86-74.008C8.651,63.547,3.25,81.142,3.25,100
		c0,48.692,35.973,88.977,82.791,95.744L117.626,141.688z"/>
</g>
</svg>
