<?xml version="1.0" encoding="utf-8"?>
<!-- Generator: Adobe Illustrator 15.1.0, SVG Export Plug-In . SVG Version: 6.00 Build 0)  -->
<!DOCTYPE svg PUBLIC "-//W3C//DTD SVG 1.1//EN" "http://www.w3.org/Graphics/SVG/1.1/DTD/svg11.dtd">
<svg version="1.1" class ="firefox-icon icon" xmlns:svg="http://www.w3.org/2000/svg" xmlns="http://www.w3.org/2000/svg" xmlns:xlink="http://www.w3.org/1999/xlink" width="200px" height="200px"
	 viewBox="150 142.5 200 200" enable-background="new 150 142.5 200 200" xml:space="preserve">
<path d="M250.881,337.379c-25.432,0-49.341-9.934-67.324-27.968c-17.979-18.032-27.881-42.01-27.881-67.512
	c0-25.503,9.902-49.48,27.881-67.514c17.983-18.037,41.893-27.971,67.324-27.971c25.433,0,49.342,9.934,67.324,27.971
	c17.978,18.034,27.879,42.011,27.879,67.514c0,25.502-9.901,49.48-27.879,67.512C300.223,327.445,276.313,337.379,250.881,337.379z
	 M250.881,154.504c-48.035,0-87.115,39.206-87.115,87.395c0,48.185,39.08,87.392,87.115,87.392
	c48.034,0,87.114-39.207,87.114-87.392C337.995,193.71,298.915,154.504,250.881,154.504z"/>
<path id="path159" d="M349.098,215.845l-2.275,14.634c0,0-3.25-27.09-7.237-37.217c-6.108-15.518-8.83-15.394-8.849-15.371
	c4.093,10.424,3.351,16.024,3.351,16.024s-7.25-19.808-26.419-26.109c-22.709-7.46-34.272-4.764-34.186-4.66
	c0.084,0.106,23.464,4.097,27.61,9.808c0,0-9.931,0-19.813,2.855c-0.447,0.126,36.361,4.607,43.889,41.477
	c0,0-4.036-8.437-9.022-9.87c3.277,10.008,2.437,28.997-0.688,38.436c-0.401,1.214-0.814-5.247-6.969-8.029
	c1.969,14.16-0.12,36.627-9.921,42.816c-0.763,0.481,6.144-22.179,1.392-13.418c-28.393,43.637-62.151,17.657-75.842,8.394
	c10.987,2.7,22.661,0.757,29.415-3.873c6.824-4.673,10.855-8.089,14.478-7.282c3.621,0.814,6.038-2.832,3.219-6.062
	c-2.814-3.238-9.65-7.688-18.896-5.267c-6.527,1.713-14.61,8.948-26.951,1.622c-10.527-6.251-10.455-11.327-10.455-14.562
	c0-3.237,10.314-9.379,15.35-7.35c1.37,0.556-0.139-6.602-2.089-11.188c3.757-7.865,15.958-10.203,16.869-10.89
	c1.649-1.252,2.386-1.876,2.949-3.76c0.528-1.752-0.781-6.495-14.435-5.186c-6.283,0.602-10.279-7.558-11.587-9.539
	c0.425-2.523,1.104-4.827,2.029-6.937c0.935-1.923,1.958-3.689,2.977-5.021c0.321-0.415,0.598-0.782,0.849-1.123
	c2.037-2.38,4.535-4.413,7.533-6.105c1.568-0.885-17.498-0.056-26.075,11.151c-2.303,0.303-5.461-0.362-8.992-0.362
	c-4.424,0-12.465,1.354-13.481,1.11c-2.831-2.94-8.307-8.129-11.209-19.595c-11.659,13.487-37.545,70.116-6.531,124.955
	c20.107,34.525,53.851,49.781,88.863,46.808c6.125-0.398,12.298-1.312,18.446-2.803
	C357.968,314.584,349.098,215.845,349.098,215.845z"/>
</svg>
