<?xml version="1.0" encoding="utf-8"?>
<!-- Generator: Adobe Illustrator 15.1.0, SVG Export Plug-In . SVG Version: 6.00 Build 0)  -->
<!DOCTYPE svg PUBLIC "-//W3C//DTD SVG 1.1//EN" "http://www.w3.org/Graphics/SVG/1.1/DTD/svg11.dtd">
<svg version="1.1" class ="ie-icon icon" xmlns="http://www.w3.org/2000/svg" xmlns:xlink="http://www.w3.org/1999/xlink" width="200px" height="200px" viewBox="0 0 200 200" enable-background="new 0 0 200 200" xml:space="preserve">
<path d="M149.671,114.518h45.553c0.372-3.257,0.583-6.562,0.583-9.918c0-15.38-4.034-29.811-11.075-42.325
	c9.456-18.261,10.583-36.191,1.108-47.413c-13.034-15.438-41.944-13.241-69.382,3.591c-2.349-0.192-4.718-0.315-7.116-0.315
	c-41.272,0-75.769,28.928-84.376,67.608c5.299-6.095,11.26-12.281,17.793-18.36c9.454-8.796,19.046-16.396,28.15-22.519v0.039
	c-5.232,5.243-10.412,10.824-15.477,16.729c-0.77,0.897-1.53,1.797-2.284,2.697c-0.236,0.281-0.468,0.563-0.703,0.845
	c-0.522,0.627-1.042,1.255-1.556,1.884c-0.262,0.32-0.521,0.64-0.781,0.96c-0.486,0.599-0.969,1.198-1.448,1.797
	c-0.257,0.322-0.513,0.643-0.768,0.965c-0.495,0.625-0.985,1.25-1.473,1.875c-0.221,0.283-0.443,0.566-0.663,0.85
	c-0.583,0.754-1.161,1.509-1.734,2.264c-0.113,0.15-0.229,0.299-0.342,0.449c-1.418,1.876-2.801,3.754-4.15,5.631
	c-0.104,0.145-0.206,0.289-0.31,0.434c-0.564,0.788-1.123,1.576-1.675,2.364c-0.129,0.184-0.257,0.368-0.386,0.553
	c-0.538,0.771-1.069,1.542-1.595,2.313c-0.11,0.161-0.221,0.323-0.33,0.484c-0.58,0.854-1.152,1.708-1.718,2.56
	c-0.042,0.062-0.083,0.125-0.125,0.188c-2.538,3.836-4.922,7.655-7.152,11.442c-0.02,0.034-0.04,0.067-0.06,0.102
	c-0.547,0.931-1.085,1.858-1.613,2.784c-0.005,0.01-0.011,0.02-0.017,0.029C3.154,142.64-2.529,176.459,13.046,189.815
	c11.814,10.131,33.398,6.37,57.896-7.755c11.571,5.75,24.601,9.004,38.4,9.004c37.895,0,70.071-24.387,81.753-58.314h-48.178
	c-7.465,12.385-19.717,20.469-33.575,20.469c-19.867,0-36.447-16.605-40.327-38.701h62.399H149.671z M23.17,182.724
	c-9.36-8.027-7.208-27.54,3.777-51.984c6.187,19.527,19.104,36.048,36.044,46.836C45.406,186.98,30.962,189.405,23.17,182.724z
	 M183.327,23.812c6.049,7.165,4.794,19.261-2.087,32.758c-9.748-14.562-23.807-25.979-40.346-32.468
	C159.539,15.817,175.954,15.08,183.327,23.812z M109.342,55.983c18.845,0,34.721,14.942,39.619,35.331H69.725
	C74.624,70.925,90.5,55.983,109.342,55.983z"/>
</svg>
