<svg version="1.1" xmlns="http://www.w3.org/2000/svg" xmlns:xlink="http://www.w3.org/1999/xlink" width="60px" viewBox="0 0 172 71" xml:space="preserve">
<g id="Layer_3">
	<linearGradient id="SVGID_1_" gradientUnits="userSpaceOnUse" x1="86.0005" y1="71" x2="86.0005" y2="4.882812e-04">
		<stop  offset="0" style="stop-color:#1D3E61"/>
		<stop  offset="0.7546" style="stop-color:#3C6498"/>
		<stop  offset="0.8479" style="stop-color:#3E669A"/>
		<stop  offset="0.8816" style="stop-color:#446DA1"/>
		<stop  offset="0.9055" style="stop-color:#4F78AC"/>
		<stop  offset="0.9248" style="stop-color:#5F89BD"/>
		<stop  offset="0.9387" style="stop-color:#709ACF"/>
		<stop  offset="1" style="stop-color:#3C6498"/>
	</linearGradient>
	<polygon fill="url(#SVGID_1_)" points="160,6 148,6 148,0 24,0 24,6 12,6 12,66 24,66 24,71 148,71 148,66 160,66 	"/>
	<linearGradient id="SVGID_2_" gradientUnits="userSpaceOnUse" x1="86.0005" y1="71" x2="86.0005" y2="4.882812e-04">
		<stop  offset="0" style="stop-color:#1D3E61"/>
		<stop  offset="1" style="stop-color:#3C6498"/>
	</linearGradient>
	<polygon fill="url(#SVGID_2_)" points="160,6 148,6 148,0 24,0 24,6 12,6 12,66 24,66 24,71 148,71 148,66 160,66 	"/>
</g>
<g id="Layer_2">
	<path fill="#FFFFFF" d="M24,6.25C24,3.125,24,0,24,0h-4C9.5,0,8,8.375,8,15c0,5.394,0,8,0,8s0,9.623-8,9.623
		C0,33.554,0,34.392,0,35c0,0.618,0,1,0,1c0,0.608,0,1.446,0,2.377C8,38.377,8,48,8,48s0,2.605,0,8c0,6.625,1.5,15,12,15h4
		c0,0,0-3.125,0-6.25c-2.371,0-6-1.625-6-5.25c0-4.148,0.125-9.625,0.125-14.125c0-3.541-2.457-7.603-6.125-9.875
		c3.668-2.272,6.125-6.334,6.125-9.875c0-4.5-0.125-9.976-0.125-14.125C18,7.875,21.629,6.25,24,6.25z"/>
	<path fill="#FFFFFF" d="M148,64.75c0,3.125,0,6.25,0,6.25h4c10.5,0,12-8.375,12-15c0-5.395,0-8,0-8s0-9.623,8-9.623
		c0-0.931,0-1.769,0-2.377c0-0.618,0-1,0-1c0-0.608,0-1.446,0-2.377c-8,0-8-9.623-8-9.623s0-2.605,0-8c0-6.625-1.5-15-12-15h-4
		c0,0,0,3.125,0,6.25c2.371,0,6,1.625,6,5.25c0,4.148-0.125,9.625-0.125,14.125c0,3.541,2.457,7.603,6.125,9.875
		c-3.668,2.272-6.125,6.334-6.125,9.875c0,4.5,0.125,9.977,0.125,14.125C154,63.125,150.371,64.75,148,64.75z"/>
</g>
<g id="Layer_4">
	<path fill="#FFFFFF" d="M26,0h11v44c0,0,0.167,4,4.5,4s4.5,0,4.5,0v10h-9c0,0-11.333-1.531-11.333-14.5S26,0,26,0z"/>
	<path fill="#FFFFFF" d="M45.167,36.5c0,30,30.754,20.25,34.667,18.5c-2.5-7.5,0-0.833-2.5-8.333c-4.167,2.167-22,5.667-22-6.667
		c13.5,0,11.167,0,26.5,0C85.333,8.5,45.167,6.5,45.167,36.5z M56.068,31.833c0-9.333,15.864-10.5,15.864,0.167
		C62.431,32,56.068,31.833,56.068,31.833z"/>
	<path fill="#FFFFFF" d="M112.421,16.833C100.087,13,83.913,16.197,83.913,28c0,9.833,6.084,10.409,10.625,12
		c4.381,1.535,8.05,1.5,7.716,5.334S91.073,48.275,85.754,47c-1.064,5.119,0,0-1.841,8.852C90.786,58,114.087,63,114.087,44.834
		c0-8.505-4.676-11.894-10.666-12.667c-10.334-1.333-10.5-10.5,6.333-6.667C112.421,16.833,112.421,16.833,112.421,16.833z"/>
	<path fill="#FFFFFF" d="M144.421,16.833C132.087,13,115.913,16.197,115.913,28c0,9.833,6.084,10.409,10.625,12
		c4.381,1.535,8.05,1.5,7.716,5.334s-11.181,2.941-16.5,1.666c-1.064,5.119,0,0-1.841,8.852C122.786,58,146.087,63,146.087,44.834
		c0-8.505-4.676-11.894-10.666-12.667c-10.334-1.333-10.5-10.5,6.333-6.667C144.421,16.833,144.421,16.833,144.421,16.833z"/>
</g>
</svg>
