<?xml version="1.0" encoding="utf-8"?>
<!-- Generator: Adobe Illustrator 15.1.0, SVG Export Plug-In . SVG Version: 6.00 Build 0)  -->
<!DOCTYPE svg PUBLIC "-//W3C//DTD SVG 1.1//EN" "http://www.w3.org/Graphics/SVG/1.1/DTD/svg11.dtd">
<svg version="1.1" class="safari-icon icon" xmlns="http://www.w3.org/2000/svg" xmlns:xlink="http://www.w3.org/1999/xlink"
	 width="200px" height="200px" viewBox="0 0 200 200" enable-background="new 0 0 200 200" xml:space="preserve">
<polygon points="111.457,110.937 43.926,155.946 88.52,89.066 156.05,44.054 "/>
<g>
	<path d="M97.974,65.694l-9.711-22.946l0.139,24.891C91.42,66.557,94.632,65.887,97.974,65.694z"/>
	<path d="M132.352,88.416c1.079,3.018,1.747,6.23,1.94,9.572l22.947-9.711L132.352,88.416z"/>
	<path d="M65.682,102.011l-22.947,9.71l24.892-0.136C66.545,108.567,65.875,105.354,65.682,102.011z"/>
	<path d="M102,134.307l9.71,22.942l-0.136-24.888C108.552,133.44,105.34,134.113,102,134.307z"/>
</g>
<path d="M124.511,102.129l32.729-13.853l-35.499,0.197c-1.474-2.778-3.467-5.238-5.844-7.256l5.59-13.786L111.03,77.999
	c-2.72-1.371-5.729-2.247-8.917-2.519l-13.85-32.732l0.197,35.498c-2.777,1.476-5.235,3.465-7.252,5.844l-13.788-5.587
	l10.568,10.452c-1.371,2.722-2.248,5.734-2.522,8.918l-32.73,13.849l35.498-0.195c1.476,2.779,3.465,5.237,5.844,7.253
	l-5.586,13.787l10.449-10.568c2.722,1.371,5.734,2.253,8.919,2.523l13.851,32.729l-0.195-35.493c2.775-1.475,5.235-3.468,7.256-5.85
	l13.781,5.589l-10.563-10.449C123.358,108.322,124.235,105.312,124.511,102.129z M99.988,119.987C88.948,119.987,80,111.04,80,100
	c0-11.04,8.948-19.987,19.987-19.987c11.038,0,19.985,8.948,19.985,19.987C119.973,111.04,111.025,119.987,99.988,119.987z"/>
<path d="M99.5,2.5C45.654,2.5,2,46.153,2,99.999C2,153.847,45.654,197.5,99.5,197.5c53.847,0,97.5-43.653,97.5-97.501
	C197,46.153,153.347,2.5,99.5,2.5z M120.11,176.37l-7.331-14.954l-0.57,16.59c-3.938,0.606-7.975,0.924-12.085,0.924
	c-36.729,0-67.596-25.093-76.403-59.064l14.435-7.074l-16.011-0.55c-0.62-3.989-0.949-8.079-0.949-12.242
	c0-36.24,24.437-66.756,57.723-76.023l7.945,16.214l0.621-18.099c4.117-0.663,8.337-1.02,12.639-1.02
	c36.201,0,66.687,24.377,75.992,57.603l-16.733,8.2l18.677,0.642c0.648,4.066,0.993,8.235,0.993,12.483
	C179.053,136.684,154.023,167.518,120.11,176.37z"/>
</svg>
